:SAMPLES-PER-SECOND 30
:FULLY-SPECIFIED
:DEGREES
349
root  88.8744 32.3617 -34.1435 93.728 68.4354 85.5543
RightUpLeg  -43.4469 -18.164 3.21583
RightLeg  5.6366 -6.77033 -0.227965
RightFoot  -1.57517 -0.00280366 0.173677
RightToes  -24.5874 -0.10848 -0.212644
Spine  8.29929 -3.53758 -4.93735
Spine1  16.711 -7.20993 -8.96304
HEad  26.4634 -28.2285 25.9179
LeftShoulder1  0 -2.42657e-020 -4.95415e-022
LeftArm  -49.6666 6.64132 -84.3834
LeftForeArm  4.12502 -46.8236 -10.8274
LeftHand  0.428643 -3.39376 -14.7929
RightShoulder  0 2.42657e-020 1.07489e-018
RightArm  -40.4121 -29.4641 74.7228
RightForeArm  40.8298 31.8669 6.27903
RightHand  1.08255 25.7519 5.10447
LeftUpLeg  4.31811 -0.738766 0.631604
LeftLeg  29.9405 -22.507 -10.6976
LeftFoot  6.55088 0.183158 -3.1996
LeftToes  -53.6654 1.71452e-006 7.46813e-008
350
root  92.425 31.3592 -33.4326 96.7802 67.8337 91.7912
RightUpLeg  -43.092 -18.1587 0.181749
RightLeg  6.6268 -8.99444 -0.457316
RightFoot  -3.00138 0.00380283 0.522827
RightToes  -21.1627 -0.0880344 -0.186104
Spine  8.3403 -3.9656 -4.78291
Spine1  16.6803 -7.80228 -9.25217
HEad  25.3953 -34.1817 26.0855
LeftShoulder1  0 -2.42657e-020 -4.95415e-022
LeftArm  -52.0883 10.8205 -80.2944
LeftForeArm  4.33737 -51.3024 -12.7198
LeftHand  0.75805 -3.99296 -21.8979
RightShoulder  0 2.42657e-020 1.07489e-018
RightArm  -47.9752 -39.9912 76.1215
RightForeArm  42.6061 35.7462 7.27862
RightHand  1.10793 24.5051 5.46992
LeftUpLeg  9.22307 3.68418 7.9754
LeftLeg  35.9547 -16.715 -10.2988
LeftFoot  4.88594 0.0802206 -1.88014
LeftToes  -49.7982 1.71452e-006 7.46813e-008
351
root  95.7413 30.05 -32.6439 105.876 68.3223 105.54
RightUpLeg  -46.1326 -25.377 2.95666
RightLeg  21.0038 -11.2795 -3.48895
RightFoot  3.16709 0.0273884 -0.613004
RightToes  11.4806 0.0175308 0.110756
Spine  8.99358 -4.9489 -4.04007
Spine1  17.76 -9.71971 -8.22292
HEad  23.5274 -40.9869 26.8445
LeftShoulder1  0 -2.42657e-020 -4.95415e-022
LeftArm  -49.6905 12.0095 -75.1069
LeftForeArm  2.58305 -54.8683 -14.5209
LeftHand  0.698483 -3.25294 -24.6525
RightShoulder  0 2.42657e-020 1.07489e-018
RightArm  -57.7781 -47.9037 77.9845
RightForeArm  46.6149 38.531 8.05574
RightHand  0.881932 24.339 4.45913
LeftUpLeg  8.82551 -1.151 15.0231
LeftLeg  48.5403 -11.4685 -11.1982
LeftFoot  3.12721 0.0287028 -1.05149
LeftToes  -46.4016 1.71452e-006 7.46813e-008
352
root  98.1934 28.6372 -32.0209 112.97 68.1601 115.874
RightUpLeg  -53.9919 -26.1704 1.45019
RightLeg  47.3184 -8.02065 -7.61131
RightFoot  -1.51084 0.000428783 0.410258
RightToes  27.1587 0.00530739 0.263178
Spine  9.67432 -5.62093 -3.55454
Spine1  18.8004 -11.1566 -7.27725
HEad  19.3493 -47.0177 30.2311
LeftShoulder1  0 -2.42657e-020 -4.95415e-022
LeftArm  -47.2501 7.80067 -70.3629
LeftForeArm  0.649205 -56.3459 -15.3646
LeftHand  0.885026 -3.313 -30.3365
RightShoulder  0 2.42657e-020 1.07489e-018
RightArm  -69.4222 -51.6615 80.4251
RightForeArm  52.5612 41.7353 9.02715
RightHand  0.433004 23.3204 2.46868
LeftUpLeg  1.4057 -11.209 15.8285
LeftLeg  66.3114 -6.31156 -12.002
LeftFoot  0.555915 0.00151762 -0.312837
LeftToes  -44.038 1.71452e-006 7.46813e-008
353
root  100.47 27.764 -30.8187 109.434 73.8104 114.476
RightUpLeg  -51.39 -19.3037 5.64327
RightLeg  55.3636 -9.72076 -12.1127
RightFoot  -8.54766 0.157754 2.48847
RightToes  23.5119 0.00495795 0.228114
Spine  10.9 -5.45899 -2.59816
Spine1  21 -11.2569 -4.75832
HEad  16.6678 -48.2221 34.1842
LeftShoulder1  0 -2.42657e-020 -4.95415e-022
LeftArm  -46.979 1.32738 -67.9758
LeftForeArm  -4.89593 -57.0793 -15.7938
LeftHand  1.24687 -4.02178 -34.8646
RightShoulder  0 2.42657e-020 1.07489e-018
RightArm  -78.1096 -43.1003 75.929
RightForeArm  68.2676 37.8919 7.81779
RightHand  -0.207405 20.8085 -0.759778
LeftUpLeg  -5.15624 -17.6983 18.2553
LeftLeg  80.5439 -3.62383 -15.1807
LeftFoot  -0.743558 -0.000285553 -0.0440155
LeftToes  -43.6886 1.71452e-006 7.46813e-008
354
root  101.976 27.4899 -29.6267 100.877 76.3486 105.293
RightUpLeg  -50.3864 -12.5164 8.14565
RightLeg  59.161 -10.5017 -14.9052
RightFoot  -12.0596 0.381693 3.9901
RightToes  26.4681 0.0067211 0.256571
Spine  11.1665 -6.56155 -3.12214
Spine1  21.5906 -14.2762 -4.28443
HEad  19.1739 -48.9694 35.7141
LeftShoulder1  0 -2.42657e-020 -4.95415e-022
LeftArm  -46.616 -4.01889 -62.8739
LeftForeArm  -9.88788 -55.1769 -14.6529
LeftHand  1.48285 -4.57202 -36.3445
RightShoulder  0 2.42657e-020 1.07489e-018
RightArm  -72.0502 -33.7201 74.7638
RightForeArm  72.8674 35.3436 7.098
RightHand  -0.451289 19.4876 -2.25832
LeftUpLeg  -17.318 -21.1991 18.1065
LeftLeg  90.2177 -1.10968 -17.849
LeftFoot  -2.67626 0.00853996 0.365585
LeftToes  -44.7697 1.71452e-006 7.46813e-008
355
root  103.217 27.5745 -28.4939 76.6667 78.3253 80.3942
RightUpLeg  -47.0723 -7.47532 12.1144
RightLeg  57.8878 -10.6138 -14.3877
RightFoot  -14.0119 0.492999 4.38785
RightToes  28.243 0.00292714 0.273516
Spine  12.2045 -7.38278 -4.09075
Spine1  23.6736 -17.4279 -3.2382
HEad  19.3288 -49.0019 38.5042
LeftShoulder1  0 -2.42657e-020 -4.95415e-022
LeftArm  -48.389 -12.3675 -56.2753
LeftForeArm  -13.5138 -50.2017 -12.1721
LeftHand  1.22646 -3.47751 -39.2868
RightShoulder  0 2.42657e-020 1.07489e-018
RightArm  -63.5519 -20.8477 75.8855
RightForeArm  70.6228 29.0046 5.53042
RightHand  -1.11998 22.179 -5.34107
LeftUpLeg  -28.5803 -20.9869 18.284
LeftLeg  93.3686 -0.0738327 -14.4865
LeftFoot  -4.9183 0.0146383 0.340839
LeftToes  -43.6187 1.71452e-006 7.46813e-008
356
root  104.344 27.9063 -27.3067 46.8545 75.8283 49.9012
RightUpLeg  -42.036 -4.43026 15.6375
RightLeg  53.9162 -8.91979 -10.6042
RightFoot  -15.6202 0.448661 3.64786
RightToes  33.0869 -0.0100766 0.319074
Spine  13.1235 -8.00294 -5.63852
Spine1  25.7838 -19.8352 -3.38738
HEad  20.5883 -47.5661 39.384
LeftShoulder1  0 -2.42657e-020 -4.95415e-022
LeftArm  -51.567 -18.8409 -49.6878
LeftForeArm  -13.8125 -47.0229 -10.8597
LeftHand  1.2624 -3.7344 -37.7796
RightShoulder  0 2.42657e-020 1.07489e-018
RightArm  -46.7295 -8.79346 78.3492
RightForeArm  56.9313 18.8754 3.41295
RightHand  -0.804863 23.387 -3.51826
LeftUpLeg  -37.1505 -19.4222 17.3356
LeftLeg  88.9123 -0.545608 -6.5928
LeftFoot  -7.57009 -0.0137745 -0.208216
LeftToes  -35.3166 1.71452e-006 7.46813e-008
357
root  105.318 28.2909 -26.1478 32.7087 70.2682 34.4353
RightUpLeg  -37.8759 -5.11867 18.2678
RightLeg  50.1429 -4.54985 -4.81625
RightFoot  -15.904 0.15907 1.51634
RightToes  38.1124 -0.027583 0.365003
Spine  13.2725 -8.27461 -6.65277
Spine1  26.4394 -20.3492 -4.71744
HEad  21.713 -45.5035 39.0419
LeftShoulder1  0 -2.42657e-020 -4.95415e-022
LeftArm  -54.9662 -24.3731 -45.9871
LeftForeArm  -12.1439 -45.3165 -10.2258
LeftHand  1.36508 -3.94983 -38.5512
RightShoulder  0 2.42657e-020 1.07489e-018
RightArm  -34.074 -1.30706 83.5178
RightForeArm  45.0517 18.0668 3.27579
RightHand  -0.379991 24.1974 -1.40291
LeftUpLeg  -44.2142 -17.6205 16.5339
LeftLeg  77.8431 -0.563714 -2.01054
LeftFoot  -10.0063 -0.0491822 -0.561803
LeftToes  -28.9699 1.71452e-006 7.46813e-008
358
root  106.268 28.6733 -25.0157 27.0496 64.7031 27.0973
RightUpLeg  -34.4887 -6.00462 19.9256
RightLeg  47.6118 -0.405254 -0.429776
RightFoot  -15.0253 -0.0908618 -0.311446
RightToes  41.5704 -0.0419359 0.395634
Spine  12.8275 -8.17058 -7.28417
Spine1  25.5731 -19.0997 -6.97798
HEad  23.2628 -44.1566 38.8375
LeftShoulder1  0 -2.42657e-020 -4.95415e-022
LeftArm  -55.2589 -29.8078 -44.5109
LeftForeArm  -10.4278 -44.8043 -10.0465
LeftHand  0.975074 -2.86768 -38.0075
RightShoulder  0 2.42657e-020 1.07489e-018
RightArm  -31.147 1.36821 90.6762
RightForeArm  44.5092 21.7142 4.00492
RightHand  -0.184775 25.1193 -0.459467
LeftUpLeg  -48.4873 -15.3454 16.1638
LeftLeg  61.0973 -0.782541 -1.2351
LeftFoot  -9.57262 -0.0322696 -0.3854
LeftToes  -30.1033 1.71452e-006 7.46813e-008
